<?xml version="1.0"?>
<svg xmlns="http://www.w3.org/2000/svg" xmlns:xlink="http://www.w3.org/1999/xlink" version="1.1" id="Layer_1" x="0px" y="0px" viewBox="0 0 512.009 512.009" style="enable-background:new 0 0 512.009 512.009;" xml:space="preserve" width="512px" height="512px"><g><circle style="fill:#F7B239;" cx="256.004" cy="256.004" r="256.004" data-original="#F7B239"/><path style="fill:#E09B2D;" d="M121.499,390.501C29.407,298.407,22.15,153.608,99.723,53.204  c-8.593,6.638-16.861,13.895-24.743,21.777c-99.974,99.974-99.974,262.065,0,362.038s262.065,99.974,362.038,0  c7.881-7.881,15.138-16.15,21.777-24.743C358.392,489.85,213.593,482.593,121.499,390.501z" data-original="#E09B2D"/><g>
	<circle style="fill:#4D4D4D;" cx="367.338" cy="262.052" r="28.558" data-original="#4D4D4D"/>
	<circle style="fill:#4D4D4D;" cx="144.671" cy="262.052" r="28.558" data-original="#4D4D4D"/>
	<path style="fill:#4D4D4D;" d="M285.51,369.794c-11.779,0-22.353-5.248-29.51-13.53c-7.157,8.282-17.732,13.53-29.511,13.53   c-21.505,0-39-17.495-39-39c0-5.24,4.248-9.489,9.489-9.489c5.24,0,9.489,4.248,9.489,9.489c0,11.04,8.983,20.022,20.022,20.022   c11.04,0,20.022-8.983,20.022-20.022c0-5.24,4.248-9.489,9.489-9.489c5.242,0,9.489,4.248,9.489,9.489   c0,11.04,8.983,20.022,20.021,20.022c11.038,0,20.021-8.983,20.021-20.022c0-5.24,4.247-9.489,9.489-9.489s9.489,4.248,9.489,9.489   C324.509,352.299,307.014,369.794,285.51,369.794z" data-original="#4D4D4D"/>
</g><g>
	<circle style="fill:#F95428" cx="94.811" cy="340.985" r="25.013" data-original="#F95428" class="active-path"/>
	<circle style="fill:#F95428" cx="417.185" cy="340.985" r="25.013" data-original="#F95428" class="active-path"/>
</g></g> </svg>
