<?xml version="1.0"?>
<svg xmlns="http://www.w3.org/2000/svg" xmlns:xlink="http://www.w3.org/1999/xlink" version="1.1" id="Layer_1" x="0px" y="0px" viewBox="0 0 512.009 512.009" style="enable-background:new 0 0 512.009 512.009;" xml:space="preserve" width="512px" height="512px"><g><circle style="fill:#F7B239;" cx="256.004" cy="256.004" r="256.004" data-original="#F7B239"/><path style="fill:#E09B2D;" d="M121.499,390.501C29.407,298.407,22.15,153.608,99.723,53.204  c-8.593,6.638-16.861,13.895-24.743,21.777c-99.974,99.974-99.974,262.065,0,362.038s262.065,99.974,362.038,0  c7.881-7.881,15.138-16.15,21.777-24.743C358.392,489.85,213.593,482.593,121.499,390.501z" data-original="#E09B2D"/><g>
	<circle style="fill:#F95428;" cx="94.811" cy="267.479" r="25.013" data-original="#F95428"/>
	<circle style="fill:#F95428;" cx="417.185" cy="267.479" r="25.013" data-original="#F95428"/>
</g><g>
	<path style="fill:#4D4D4D" d="M196.533,199.542c-3.23,0-6.379-1.65-8.155-4.624c-8.571-14.347-23.667-22.913-40.38-22.913   s-31.809,8.565-40.38,22.913c-2.687,4.498-8.511,5.966-13.012,3.279c-4.499-2.688-5.966-8.513-3.279-13.012   c12.03-20.136,33.215-32.156,56.671-32.156s44.641,12.022,56.671,32.156c2.688,4.499,1.22,10.325-3.279,13.012   C199.867,199.108,198.189,199.542,196.533,199.542z" data-original="#4D4D4D" class="active-path"/>
	<path style="fill:#4D4D4D" d="M412.536,199.542c-3.23,0-6.378-1.65-8.154-4.624c-8.571-14.347-23.667-22.913-40.381-22.913   c-16.713,0-31.807,8.566-40.379,22.913c-2.686,4.499-8.513,5.966-13.012,3.279c-4.499-2.687-5.966-8.513-3.279-13.012   c12.03-20.135,33.215-32.156,56.67-32.156c23.456,0,44.641,12.02,56.673,32.156c2.687,4.499,1.22,10.324-3.279,13.012   C415.87,199.108,414.192,199.542,412.536,199.542z" data-original="#4D4D4D" class="active-path"/>
	<path style="fill:#4D4D4D" d="M296.511,335.795c-16.646,0-31.418-8.177-40.512-20.725c-9.093,12.547-23.866,20.725-40.512,20.725   c-27.57,0-50-22.43-50-49.999c0-5.24,4.248-9.489,9.489-9.489s9.489,4.248,9.489,9.489c0,17.106,13.917,31.022,31.023,31.022   s31.023-13.917,31.023-31.022c0-5.24,4.248-9.489,9.489-9.489c5.242,0,9.489,4.248,9.489,9.489   c0,17.106,13.917,31.022,31.023,31.022c17.106,0,31.022-13.917,31.022-31.022c0-5.24,4.247-9.489,9.489-9.489   s9.489,4.248,9.489,9.489C346.51,313.365,324.08,335.795,296.511,335.795z" data-original="#4D4D4D" class="active-path"/>
</g></g> </svg>
